<?xml version="1.0" encoding="UTF-8" standalone="no"?>
<svg id="svg2" xmlns:rdf="http://www.w3.org/1999/02/22-rdf-syntax-ns#" style="image-rendering:optimizeQuality;text-rendering:geometricPrecision;shape-rendering:geometricPrecision" xmlns="http://www.w3.org/2000/svg" fill-rule="evenodd" xml:space="preserve" height="174.06mm" width="273.66mm" version="1.1" clip-rule="evenodd" xmlns:cc="http://creativecommons.org/ns#" xmlns:dc="http://purl.org/dc/elements/1.1/" viewBox="0 0 27366.275 17405.996">
 <defs id="defs4">
  <style id="style6" type="text/css">
   <![CDATA[
    .fil0 {fill:black}
    .fil11 {fill:#276B05}
    .fil4 {fill:#2D7807}
    .fil5 {fill:#339800}
    .fil10 {fill:#8A0404}
    .fil8 {fill:#A60707}
    .fil6 {fill:#CC0000}
    .fil13 {fill:#D91111}
    .fil7 {fill:#DEB204}
    .fil12 {fill:#DEB6A9}
    .fil9 {fill:#E32D2D}
    .fil1 {fill:#F2C8BA}
    .fil3 {fill:#FFCC00}
    .fil14 {fill:white}
    .fil2 {fill:black}
   ]]>
  </style>
 </defs>
   <g id="g4212" transform="matrix(2.4485 0 0 2.4485 -1777.6 -185.06)"><path id="path24" class="fil3" fill="#fc0" d="m1770 2738c578 0 1045 467 1045 1045 0 577-467 1044-1045 1044-577 0-1044-467-1044-1044 0-578 467-1045 1044-1045z"/><path id="path28" class="fil5" fill="#339800" d="m11468 5275c221-138 363-232 413-334 50-103 7-213-62-341-69-127-163-273-218-430s-71-327-74-521c-3-193 8-411-19-563s-91-238-207-300c-115-62-282-99-438-132-156-32-301-59-312-36s113 95-43 250-592 392-1198 662c-607 270-1384 574-2098 804s-1365 386-1820 486c-454 99-713 142-925 139-212-2-379-51-463-21-83 29-83 137-86 360-2 224-8 562 14 829 21 266 70 460 172 605s258 242 578 317c320 76 804 129 1256 135 452 5 872-38 1369-154 498-115 1073-304 1644-524 570-221 1135-473 1566-691 432-218 730-401 951-540z"/><path id="path30" class="fil6" fill="#c00" d="m4004 4767c86 69 256 101 577 78 322-23 795-101 1392-251 597-151 1318-374 1918-589 600-216 1078-423 1467-603s687-333 857-440c169-106 210-165 226-224s8-119-104-218c-111-100-327-239-723-432-397-192-975-437-1531-667-555-230-1088-445-1589-632-502-187-973-346-1342-460-370-114-639-184-849-222-210-37-360-43-521-9-160 33-329 106-494 215-166 109-327 254-480 418-154 164-299 347-432 545s-254 410-338 593c-83 183-129 336-164 446-35 111-59 178-55 212 4 33 36 33 73 37 36 4 76 12 113 20 36 9 68 17 113-9 44-26 100-85 178-165 78-81 178-183 299-260s264-128 429-156 354-34 546-12c192 21 389 70 565 89s332 8 477-30c145-37 280-102 431-234 150-132 317-331 382-379 64-48 26 54-49 167s-188 236-312 333-258 167-409 213c-150 45-317 67-360 97-43 29 38 67 175 96 137 30 331 51 527 41 196-11 395-54 476-54s43 43-70 78-301 62-476 81c-175 18-336 29-476 5s-258-83-371-143c-113-59-221-118-296-150-75-33-118-38-94 19 24 56 115 174 169 333s70 358 73 613c2 256-8 568-14 799-5 231-5 382-4 510 2 128 4 232 90 301z"/><path id="path32" class="fil4" fill="#2d7807" d="m7562 4217c27-2 50-2 67 1 122 26-66 225-335 431s-619 418-873 554-413 195-355 206c58 10 332-27 393 39 60 66-93 235-219 361-127 127-226 210-358 312-132 103-296 224-387 320-92 97-111 170-54 238 56 69 188 134 418 179 230 46 558 73 999 31 441-41 995-152 1385-238s616-148 642-123c1 0 1 1 2 2-549 210-1101 389-1580 500-497 116-917 159-1369 154-452-6-936-59-1256-135-320-75-476-172-578-317s-151-339-172-605c-22-267-16-605-14-829 3-223 3-331 86-360 84-30 251 19 463 21 212 3 471-40 925-139 455-100 1106-256 1820-486 115-37 232-76 350-117z"/><path id="path34" class="fil4" fill="#2d7807" d="m9593 3453c174-75 370-159 537-245s304-175 391-255c88-81 125-154 137-203 12-50-1-77 70-69 72 8 228 51 354 93s223 82 284 137c60 55 84 125 98 272 13 146 16 370 21 543 6 173 14 297 54 424 41 126 113 255 167 365 54 111 89 202 97 281 8 80-11 147-112 240s-284 211-471 324c-186 113-377 221-537 305-160 85-290 147-199 53 90-94 399-345 605-549 205-204 308-363 335-487 26-124-22-212-116-216s-234 76-246-6 103-327 161-536c58-210 58-385 59-509 2-123 4-196-31-269-35-72-107-145-212-138s-242 93-444 180-468 176-725 256c-257 79-504 149-552 150-49 2 102-66 275-141z"/><path id="path36" class="fil7" fill="#deb204" d="m1959 2997c24 85 46 206 44 379-1 174-25 400-86 573-60 174-157 295-254 382-97 88-194 141-299 155-104 13-217-14-305-34-41-9-76-17-112-26 191 244 489 401 823 401 578 0 1045-467 1045-1044 0-507-361-930-840-1025-29 18-46 39-52 60-15 46 12 94 36 179z"/><path id="path38" class="fil8" fill="#a60707" d="m3482 1974c194-7 403-9 584-22 262-19 467-62 644-142 178-81 329-199 471-346 143-146 277-321 340-321 64 0 55 175 41 317-15 143-37 253-120 359s-229 209-335 274c-106 66-173 96-98 116s293 31 546 31 541-11 792-32c252-22 467-54 304 24s-703 266-1111 389c-407 122-682 178-822 328-139 149-145 391-60 552 85 162 259 243 413 295 153 52 285 77 489 106 205 30 482 65 814 58s719-55 1144-141 888-210 1032-209c111 1 32 77-148 202-160 63-330 128-511 193-600 215-1321 438-1918 589-597 150-1070 228-1392 251-321 23-491-9-577-78s-88-173-90-301c-1-128-1-279 4-510 6-231 16-543 14-799-3-255-19-454-73-613s-145-277-169-333c-24-57 19-52 94-19 75 32 183 91 296 150 113 60 231 119 371 143s301 13 476-5c175-19 363-46 476-81s151-78 70-78-280 43-476 54c-196 10-390-11-527-41-137-29-218-67-175-96 43-30 210-52 360-97 151-46 285-116 409-213s237-220 312-333 113-215 49-167c-65 48-232 247-382 379-151 132-286 197-431 234-145 38-301 49-477 30s-373-68-565-89c-29-3-59-6-88-8z"/><path id="path40" class="fil9" fill="#e32d2d" d="m5732 518c-437-26-868-49-1196-56-412-8-662 11-953 116-290 105-621 296-895 535-217 189-398 409-513 488 61-108 129-219 201-325 133-198 278-381 432-545 153-164 314-309 480-418 165-109 334-182 494-215 161-34 311-28 521 9 210 38 479 108 849 222 173 54 369 117 580 189z"/><path id="path42" class="fil9" fill="#e32d2d" d="m8579 1628c216 137 446 283 624 420 365 281 507 528 510 714 3 185-134 309-251 414s-214 191-276 269c-14 18-27 36-35 52 72-33 141-64 207-95 389-180 687-333 857-440 169-106 210-165 226-224s8-119-104-218c-111-100-327-239-723-432-279-135-648-296-1035-460z"/></g>
</svg>
